<svg class="icons" id="revert-icon" xmlns="http://www.w3.org/2000/svg" width="24px" height="24px" viewBox="0 0 24 24" fill="none" stroke="currentColor" stroke-width="2">
    <path id="arrows" class="st0" d="M12 7v5h4" stroke-linecap="round" stroke-linejoin="round"/>
    <g>
        <path class="st0" d="M5.043,6.292C3.767,7.845,3,9.833,3,12c0,4.971,4.029,9,9,9s9-4.029,9-9s-4.029-9-9-9"/>
        <path d="M9.551,4.101C9.833,3.628,9.615,3.29,9.068,3.348L4.387,3.85C3.84,3.909,3.636,4.336,3.933,4.798l2.16,3.367 C6.39,8.628,6.863,8.62,7.144,8.147L9.551,4.101z"/>
        <path class="st0" d="M9.551,4.101C9.833,3.628,9.615,3.29,9.068,3.348L4.387,3.85C3.84,3.909,3.636,4.336,3.933,4.798l2.16,3.367 C6.39,8.628,6.863,8.62,7.144,8.147L9.551,4.101z"/>
    </g>
</svg>