<svg class="icons" id="settings-icon" width="24" height="24" viewBox="0 0 24 24" xmlns="http://www.w3.org/2000/svg" fill="none" stroke="currentColor" stroke-width="2">
  <circle class="cls-1" cx="12" cy="12" r="4.6"/>
  <path class="cls-1" d="m21.9,9.98c-.54-.1-1.11-.58-1.27-1.06s-.51-2.03-.2-2.48l.35-.51c.31-.45.29-1.1-.05-1.44l-1.22-1.22c-.34-.34-.98-.36-1.44-.05l-.51.35c-.45.31-1.19.38-1.64.15s-1.81-1.08-1.91-1.62l-.11-.61c-.1-.54-.57-.98-1.05-.98h-1.73c-.47,0-.95.44-1.05.98l-.11.61c-.1.54-.58,1.11-1.06,1.27s-2.03.51-2.48.2l-.51-.35c-.45-.31-1.1-.29-1.44.05l-1.22,1.22c-.34.34-.36.98-.05,1.44l.35.51c.31.45.38,1.19.15,1.64s-1.08,1.81-1.62,1.91l-.61.11c-.54.1-.98.57-.98,1.05v1.73c0,.47.44.95.98,1.05l.61.11c.54.1,1.11.58,1.27,1.06s.51,2.03.2,2.48l-.35.51c-.31.45-.29,1.1.05,1.44s.88.88,1.22,1.22.98.36,1.44.05l.51-.35c.45-.31,1.19-.38,1.64-.15s1.81,1.08,1.91,1.62l.11.61c.1.54.57.98,1.05.98h1.73c.47,0,.95-.44,1.05-.98l.11-.61c.1-.54.58-1.11,1.06-1.27s2.03-.51,2.48-.2l.51.35c.45.31,1.1.29,1.44-.05s.88-.88,1.22-1.22.36-.98.05-1.44l-.35-.51c-.31-.45-.38-1.19-.15-1.64s1.08-1.81,1.62-1.91l.61-.11c.54-.1.98-.57.98-1.05v-1.73c0-.47-.44-.95-.98-1.05l-.61-.11Z"/>
</svg>